<svg xmlns="http://www.w3.org/2000/svg" width="31.99" height="31.99" viewBox="0 0 31.99 31.99"><path d="M28.563,2.25H3.428A3.428,3.428,0,0,0,0,5.678V30.813A3.428,3.428,0,0,0,3.428,34.24H28.563a3.428,3.428,0,0,0,3.428-3.428V5.678A3.428,3.428,0,0,0,28.563,2.25ZM25.071,13.589c.014.2.014.407.014.607A13.234,13.234,0,0,1,11.761,27.521a13.263,13.263,0,0,1-7.191-2.1,9.866,9.866,0,0,0,1.128.057,9.39,9.39,0,0,0,5.813-2A4.689,4.689,0,0,1,7.134,20.23a5.047,5.047,0,0,0,2.114-.086,4.684,4.684,0,0,1-3.749-4.6v-.057a4.68,4.68,0,0,0,2.114.593,4.673,4.673,0,0,1-2.085-3.9,4.625,4.625,0,0,1,.636-2.364,13.3,13.3,0,0,0,9.654,4.9,4.693,4.693,0,0,1,7.99-4.277,9.177,9.177,0,0,0,2.971-1.128,4.671,4.671,0,0,1-2.057,2.578,9.32,9.32,0,0,0,2.7-.728A9.858,9.858,0,0,1,25.071,13.589Z" transform="translate(0 -2.25)"/></svg>