<svg xmlns="http://www.w3.org/2000/svg" width="1200" height="675" viewBox="0 0 1200 675">
  <defs>
    <linearGradient id="bg" x1="0" y1="0" x2="1" y2="1">
      <stop offset="0%" stop-color="#1a1020"/>
      <stop offset="100%" stop-color="#1e1010"/>
    </linearGradient>
    <linearGradient id="glow" x1="0" y1="0" x2="1" y2="1">
      <stop offset="0%" stop-color="#885a5a" stop-opacity="0.2"/>
      <stop offset="100%" stop-color="#885a5a" stop-opacity="0"/>
    </linearGradient>
  </defs>
  <rect width="1200" height="675" fill="url(#bg)"/>
  <circle cx="1000" cy="100" r="400" fill="#885a5a" opacity="0.07"/>
  <circle cx="100" cy="550" r="300" fill="#885a5a" opacity="0.05"/>
  <ellipse cx="600" cy="337" rx="500" ry="200" fill="url(#glow)"/>
  <!-- Grid lines decorative -->
  <line x1="0" y1="225" x2="1200" y2="225" stroke="#885a5a" stroke-opacity="0.07" stroke-width="1"/>
  <line x1="0" y1="450" x2="1200" y2="450" stroke="#885a5a" stroke-opacity="0.07" stroke-width="1"/>
  <line x1="400" y1="0" x2="400" y2="675" stroke="#885a5a" stroke-opacity="0.07" stroke-width="1"/>
  <line x1="800" y1="0" x2="800" y2="675" stroke="#885a5a" stroke-opacity="0.07" stroke-width="1"/>
  <!-- Tag -->
  <rect x="80" y="200" width="150" height="32" rx="16" fill="#885a5a" opacity="0.25"/>
  <text x="155" y="222" font-family="system-ui, sans-serif" font-size="13" fill="#c49090" text-anchor="middle" font-weight="600" letter-spacing="2">AI · INSTAGRAM</text>
  <!-- Title -->
  <text x="80" y="310" font-family="system-ui, sans-serif" font-size="62" font-weight="800" fill="#f5ebe0">Noctura</text>
  <text x="80" y="385" font-family="system-ui, sans-serif" font-size="62" font-weight="800" fill="#885a5a">Pulse</text>
  <!-- Subtitle -->
  <text x="80" y="440" font-family="system-ui, sans-serif" font-size="20" fill="#c49090" opacity="0.8">Python · Claude API · instagrapi · SQLite · Notion</text>
  <!-- Dots -->
  <circle cx="80" cy="520" r="5" fill="#885a5a" opacity="0.6"/>
  <circle cx="100" cy="520" r="5" fill="#885a5a" opacity="0.4"/>
  <circle cx="120" cy="520" r="5" fill="#885a5a" opacity="0.2"/>
</svg>
