<svg xmlns="http://www.w3.org/2000/svg" width="32.096" height="32.096" viewBox="0 0 32.096 32.096"><path d="M16.359,7A9.373,9.373,0,0,0,7,16.363V29.736A9.373,9.373,0,0,0,16.363,39.1H29.736A9.373,9.373,0,0,0,39.1,29.733V16.359A9.373,9.373,0,0,0,29.733,7Zm16.318,5.135a1.284,1.284,0,1,1-1.284,1.284A1.284,1.284,0,0,1,32.677,12.135ZM23.048,14.7A8.345,8.345,0,1,1,14.7,23.048,8.353,8.353,0,0,1,23.048,14.7Zm0,2.568a5.777,5.777,0,1,0,5.777,5.777A5.777,5.777,0,0,0,23.048,17.271Z" transform="translate(-7 -7)"/></svg>